<mxfile host="65bd71144e">
    <diagram id="nH2B4FjEhEtP9saKsfA3" name="Page-1">
        <mxGraphModel dx="1086" dy="507" grid="1" gridSize="10" guides="1" tooltips="1" connect="1" arrows="1" fold="1" page="1" pageScale="1" pageWidth="850" pageHeight="1100" background="#ffffff" math="0" shadow="0">
            <root>
                <mxCell id="0"/>
                <mxCell id="1" parent="0"/>
                <mxCell id="2" value="DatabaseConnection" style="swimlane;fontStyle=0;align=center;verticalAlign=top;childLayout=stackLayout;horizontal=1;startSize=30;horizontalStack=0;resizeParent=1;resizeParentMax=0;resizeLast=0;collapsible=0;marginBottom=0;html=1;fillColor=#f8cecc;strokeColor=#b85450;" parent="1" vertex="1">
                    <mxGeometry x="10" y="80" width="225" height="272" as="geometry"/>
                </mxCell>
                <mxCell id="3" value="- URL : String" style="text;html=1;strokeColor=none;fillColor=none;align=left;verticalAlign=middle;spacingLeft=4;spacingRight=4;overflow=hidden;rotatable=0;points=[[0,0.5],[1,0.5]];portConstraint=eastwest;" parent="2" vertex="1">
                    <mxGeometry y="30" width="225" height="26" as="geometry"/>
                </mxCell>
                <mxCell id="4" value="- mainCon : Connection" style="text;html=1;strokeColor=none;fillColor=none;align=left;verticalAlign=middle;spacingLeft=4;spacingRight=4;overflow=hidden;rotatable=0;points=[[0,0.5],[1,0.5]];portConstraint=eastwest;fontStyle=4;" parent="2" vertex="1">
                    <mxGeometry y="56" width="225" height="26" as="geometry"/>
                </mxCell>
                <mxCell id="5" value="+ userID : int" style="text;html=1;strokeColor=none;fillColor=none;align=left;verticalAlign=middle;spacingLeft=4;spacingRight=4;overflow=hidden;rotatable=0;points=[[0,0.5],[1,0.5]];portConstraint=eastwest;fontStyle=4;" parent="2" vertex="1">
                    <mxGeometry y="82" width="225" height="26" as="geometry"/>
                </mxCell>
                <mxCell id="6" style="line;strokeWidth=1;fillColor=none;align=left;verticalAlign=middle;spacingTop=-1;spacingLeft=3;spacingRight=3;rotatable=0;labelPosition=right;points=[];portConstraint=eastwest;" parent="2" vertex="1">
                    <mxGeometry y="108" width="225" height="8" as="geometry"/>
                </mxCell>
                <mxCell id="7" value="+ getConnection(): Connection" style="text;html=1;strokeColor=none;fillColor=none;align=left;verticalAlign=middle;spacingLeft=4;spacingRight=4;overflow=hidden;rotatable=0;points=[[0,0.5],[1,0.5]];portConstraint=eastwest;fontStyle=4;" parent="2" vertex="1">
                    <mxGeometry y="116" width="225" height="26" as="geometry"/>
                </mxCell>
                <mxCell id="8" value="+ setID(int): void" style="text;html=1;strokeColor=none;fillColor=none;align=left;verticalAlign=middle;spacingLeft=4;spacingRight=4;overflow=hidden;rotatable=0;points=[[0,0.5],[1,0.5]];portConstraint=eastwest;fontStyle=4;" parent="2" vertex="1">
                    <mxGeometry y="142" width="225" height="26" as="geometry"/>
                </mxCell>
                <mxCell id="9" value="+ getUserID(): int" style="text;html=1;strokeColor=none;fillColor=none;align=left;verticalAlign=middle;spacingLeft=4;spacingRight=4;overflow=hidden;rotatable=0;points=[[0,0.5],[1,0.5]];portConstraint=eastwest;fontStyle=4;" parent="2" vertex="1">
                    <mxGeometry y="168" width="225" height="26" as="geometry"/>
                </mxCell>
                <mxCell id="10" value="+ getAllExercises(): List&lt;Exercise&gt;&amp;lt;Exercise&amp;gt;" style="text;html=1;strokeColor=none;fillColor=none;align=left;verticalAlign=middle;spacingLeft=4;spacingRight=4;overflow=hidden;rotatable=0;points=[[0,0.5],[1,0.5]];portConstraint=eastwest;fontStyle=4;" parent="2" vertex="1">
                    <mxGeometry y="194" width="225" height="26" as="geometry"/>
                </mxCell>
                <mxCell id="11" value="+ getWorkouts(int, int): List&lt;Workout&gt;&amp;lt;Workout&amp;gt;" style="text;html=1;strokeColor=none;fillColor=none;align=left;verticalAlign=middle;spacingLeft=4;spacingRight=4;overflow=hidden;rotatable=0;points=[[0,0.5],[1,0.5]];portConstraint=eastwest;fontStyle=4;" parent="2" vertex="1">
                    <mxGeometry y="220" width="225" height="26" as="geometry"/>
                </mxCell>
                <mxCell id="12" value="+ storeWorkout(Workout): void" style="text;html=1;strokeColor=none;fillColor=none;align=left;verticalAlign=middle;spacingLeft=4;spacingRight=4;overflow=hidden;rotatable=0;points=[[0,0.5],[1,0.5]];portConstraint=eastwest;fontStyle=4;" parent="2" vertex="1">
                    <mxGeometry y="246" width="225" height="26" as="geometry"/>
                </mxCell>
                <mxCell id="13" value="InitiliseDefaultTableData" style="swimlane;fontStyle=0;align=center;verticalAlign=top;childLayout=stackLayout;horizontal=1;startSize=30;horizontalStack=0;resizeParent=1;resizeParentMax=0;resizeLast=0;collapsible=0;marginBottom=0;html=1;fillColor=#dae8fc;strokeColor=#6c8ebf;" parent="1" vertex="1">
                    <mxGeometry x="390" y="73" width="225" height="324" as="geometry"/>
                </mxCell>
                <mxCell id="14" value="- con : Connection" style="text;html=1;strokeColor=none;fillColor=none;align=left;verticalAlign=middle;spacingLeft=4;spacingRight=4;overflow=hidden;rotatable=0;points=[[0,0.5],[1,0.5]];portConstraint=eastwest;fontStyle=4;" parent="13" vertex="1">
                    <mxGeometry y="30" width="225" height="26" as="geometry"/>
                </mxCell>
                <mxCell id="15" value="- stmt : PreparedStatement" style="text;html=1;strokeColor=none;fillColor=none;align=left;verticalAlign=middle;spacingLeft=4;spacingRight=4;overflow=hidden;rotatable=0;points=[[0,0.5],[1,0.5]];portConstraint=eastwest;fontStyle=4;" parent="13" vertex="1">
                    <mxGeometry y="56" width="225" height="26" as="geometry"/>
                </mxCell>
                <mxCell id="16" style="line;strokeWidth=1;fillColor=none;align=left;verticalAlign=middle;spacingTop=-1;spacingLeft=3;spacingRight=3;rotatable=0;labelPosition=right;points=[];portConstraint=eastwest;" parent="13" vertex="1">
                    <mxGeometry y="82" width="225" height="8" as="geometry"/>
                </mxCell>
                <mxCell id="17" value="+ initialiseMetricTypeTable(): void" style="text;html=1;strokeColor=none;fillColor=none;align=left;verticalAlign=middle;spacingLeft=4;spacingRight=4;overflow=hidden;rotatable=0;points=[[0,0.5],[1,0.5]];portConstraint=eastwest;fontStyle=4;" parent="13" vertex="1">
                    <mxGeometry y="90" width="225" height="26" as="geometry"/>
                </mxCell>
                <mxCell id="18" value="+ initialiseMuscleGroupTable(): void" style="text;html=1;strokeColor=none;fillColor=none;align=left;verticalAlign=middle;spacingLeft=4;spacingRight=4;overflow=hidden;rotatable=0;points=[[0,0.5],[1,0.5]];portConstraint=eastwest;fontStyle=4;" parent="13" vertex="1">
                    <mxGeometry y="116" width="225" height="26" as="geometry"/>
                </mxCell>
                <mxCell id="19" value="+ initialiseEquipmentTypeTable(): void" style="text;html=1;strokeColor=none;fillColor=none;align=left;verticalAlign=middle;spacingLeft=4;spacingRight=4;overflow=hidden;rotatable=0;points=[[0,0.5],[1,0.5]];portConstraint=eastwest;fontStyle=4;" parent="13" vertex="1">
                    <mxGeometry y="142" width="225" height="26" as="geometry"/>
                </mxCell>
                <mxCell id="20" value="+ initialiseSetTypeTable(): void" style="text;html=1;strokeColor=none;fillColor=none;align=left;verticalAlign=middle;spacingLeft=4;spacingRight=4;overflow=hidden;rotatable=0;points=[[0,0.5],[1,0.5]];portConstraint=eastwest;fontStyle=4;" parent="13" vertex="1">
                    <mxGeometry y="168" width="225" height="26" as="geometry"/>
                </mxCell>
                <mxCell id="21" value="+ initialiseBasicUser(): void" style="text;html=1;strokeColor=none;fillColor=none;align=left;verticalAlign=middle;spacingLeft=4;spacingRight=4;overflow=hidden;rotatable=0;points=[[0,0.5],[1,0.5]];portConstraint=eastwest;fontStyle=4;" parent="13" vertex="1">
                    <mxGeometry y="194" width="225" height="26" as="geometry"/>
                </mxCell>
                <mxCell id="22" value="+ initialiseGoalTypeTable(): void" style="text;html=1;strokeColor=none;fillColor=none;align=left;verticalAlign=middle;spacingLeft=4;spacingRight=4;overflow=hidden;rotatable=0;points=[[0,0.5],[1,0.5]];portConstraint=eastwest;fontStyle=4;" parent="13" vertex="1">
                    <mxGeometry y="220" width="225" height="26" as="geometry"/>
                </mxCell>
                <mxCell id="23" value="+ main(Connection): void" style="text;html=1;strokeColor=none;fillColor=none;align=left;verticalAlign=middle;spacingLeft=4;spacingRight=4;overflow=hidden;rotatable=0;points=[[0,0.5],[1,0.5]];portConstraint=eastwest;fontStyle=4;" parent="13" vertex="1">
                    <mxGeometry y="246" width="225" height="26" as="geometry"/>
                </mxCell>
                <mxCell id="24" value="+ defaultExercises(): void" style="text;html=1;strokeColor=none;fillColor=none;align=left;verticalAlign=middle;spacingLeft=4;spacingRight=4;overflow=hidden;rotatable=0;points=[[0,0.5],[1,0.5]];portConstraint=eastwest;fontStyle=4;" parent="13" vertex="1">
                    <mxGeometry y="272" width="225" height="26" as="geometry"/>
                </mxCell>
                <mxCell id="25" value="+ addBatchToExerciseInsert(PreparedStatement, String, int, int, int, int, int): void" style="text;html=1;strokeColor=none;fillColor=none;align=left;verticalAlign=middle;spacingLeft=4;spacingRight=4;overflow=hidden;rotatable=0;points=[[0,0.5],[1,0.5]];portConstraint=eastwest;fontStyle=4;" parent="13" vertex="1">
                    <mxGeometry y="298" width="225" height="26" as="geometry"/>
                </mxCell>
                <mxCell id="26" value="TableCreation" style="swimlane;fontStyle=0;align=center;verticalAlign=top;childLayout=stackLayout;horizontal=1;startSize=30;horizontalStack=0;resizeParent=1;resizeParentMax=0;resizeLast=0;collapsible=0;marginBottom=0;html=1;fillColor=#d5e8d4;strokeColor=#82b366;" parent="1" vertex="1">
                    <mxGeometry x="10" y="440" width="225" height="64" as="geometry"/>
                </mxCell>
                <mxCell id="27" style="line;strokeWidth=1;fillColor=none;align=left;verticalAlign=middle;spacingTop=-1;spacingLeft=3;spacingRight=3;rotatable=0;labelPosition=right;points=[];portConstraint=eastwest;" parent="26" vertex="1">
                    <mxGeometry y="30" width="225" height="8" as="geometry"/>
                </mxCell>
                <mxCell id="28" value="+ main(Connection): void" style="text;html=1;strokeColor=none;fillColor=none;align=left;verticalAlign=middle;spacingLeft=4;spacingRight=4;overflow=hidden;rotatable=0;points=[[0,0.5],[1,0.5]];portConstraint=eastwest;fontStyle=4;" parent="26" vertex="1">
                    <mxGeometry y="38" width="225" height="26" as="geometry"/>
                </mxCell>
                <mxCell id="29" value="Called&amp;nbsp;&lt;div&gt;once&lt;/div&gt;" style="edgeStyle=none;html=1;entryX=0.5;entryY=0;entryDx=0;entryDy=0;endArrow=none;endFill=0;startArrow=diamondThin;startFill=1;endSize=6;startSize=15;" edge="1" parent="1" source="12" target="26">
                    <mxGeometry relative="1" as="geometry"/>
                </mxCell>
                <mxCell id="30" value="Called after&amp;nbsp;&lt;div&gt;TableCreation&lt;/div&gt;" style="edgeStyle=none;html=1;entryX=0;entryY=0.5;entryDx=0;entryDy=0;endArrow=none;endFill=0;startArrow=diamond;startFill=1;endSize=6;startSize=12;" edge="1" parent="1" source="8" target="13">
                    <mxGeometry relative="1" as="geometry"/>
                </mxCell>
            </root>
        </mxGraphModel>
    </diagram>
</mxfile>